{
"תאריך":"2023-10-18",
   "keywords":[
"רְמִיזָה",
"קובץ רמז",
"קובץ גיליון רמז של cdrwin",
"כיצד לפתוח קובץ cue",
"קוֹבֶץ",
"סיומת קובץ cue",
"סיומת",
"קוֹבֶץ"
],
   "author":{
"display_name":"שייק פאיז"
},
"draft": "false",
"toc":true,
"title": "פורמט קובץ CUE - גיליון רמזים של CDRWIN",
   "description":"למד על פורמט קובץ CUE CDRWIN Cue Sheet וממשקי API שיכולים ליצור ולפתוח קובצי CUE.",
"linktitle": "CUE CDRWIN",
   "menu":{
      "docs":{
         "identifier":"disc-and-media-cue-cdrwin",
         "parent":"disc-and-media"
}
},
"lastmod":"2023-10-18"
}

## מהו קובץ CUE?

קובץ **.CUE**, הידוע גם בשם **CDRWIN Cue Sheet**, הוא קובץ טקסט רגיל המכיל מידע על רצועות ופריסה של תקליטור שמע או תמונת דיסק, בדרך כלל בפורמט BIN או ISO. קבצים אלה משמשים לעתים קרובות לתיאור מבנה ותוכן של תקליטור, מה שמאפשר לתוכנת צריבת תקליטורים או לתוכנת כונן וירטואלי לשחזר במדויק את הדיסק המקורי.

## דוגמה לקובץ CUE

הנה דוגמה לאיך יכול להיראות קובץ ".cue":

```
PERFORMER "Artist Name"
TITLE "Album Title"
FILE "DiscImage.bin" BINARY
  TRACK 01 AUDIO
    TITLE "Track 1 Title"
    PERFORMER "Artist Name"
    INDEX 01 00:00:00
  TRACK 02 AUDIO
    TITLE "Track 2 Title"
    PERFORMER "Artist Name"
    INDEX 01 03:45:21
  TRACK 03 AUDIO
    TITLE "Track 3 Title"
    PERFORMER "Artist Name"
    INDEX 01 07:28:17
  TRACK 04 AUDIO
    TITLE "Track 4 Title"
    PERFORMER "Artist Name"
    INDEX 01 12:15:40
  (Additional tracks go here...)
```

## גיליון רמזים של CDRWIN

CDRWIN Cue Sheet הוא גרסה ספציפית של פורמט הקובץ ".cue" המשמש את תוכנת CDRWIN. CDRWIN היא תוכנת צריבת ועריכת תקליטורים/DVD וגיליונות ה-".cue" שלה מיועדים לשימוש עם תוכנה זו. גיליונות ".cue" אלה מכילים מידע הדרוש ל-CDRWIN כדי ליצור או לצרוב במדויק CD או DVD.

הנה כמה פרטים מרכזיים ספציפיים ל-CDRWIN Cue Sheets:

1. **ייחודי ל-CDRWIN**: גיליונות ".cue" של CDRWIN הם פורמט קנייני ספציפי לתוכנת CDRWIN. בעוד שהם חולקים קווי דמיון עם קבצי ".cue" סטנדרטיים, הם מותאמים לעבודה עם התכונות וההגדרות של CDRWIN.
    






2. **ממשק ידידותי למשתמש**: CDRWIN מספק ממשק קל לשימוש ליצירה ועריכה של גיליונות ה-".cue" שלו. משתמשים יכולים להוסיף או לשנות מידע על מסלולים, אינדקסים, פערים ופרמטרים אחרים בצורה ידידותית למשתמש.
    






3. **סוגי תקליטורים תואמים**: גיליונות מקשים של CDRWIN משמשים בעיקר ליצירת סוגים שונים של תקליטורים ו-DVD, לרבות תקליטורי נתונים, תקליטורי שמע, דיסקים עם מצב מעורב ועוד. הפורמט מאפשר למשתמשים לציין סוג ותוכן של הדיסק שהם רוצים ליצור.
    






4. ** פריסת שליטה על דיסק**: גיליונות רמז של CDRWIN מספקים שליטה מפורטת על הפריסה והמבנה של הדיסק, כולל סדר רצועות, הגדרות הפסקה/פער וכל העדפות ספציפיות אחרות שעשויות להיות למשתמש.
    






5. **תמיכה ב-ISO ו-BIN**: CDRWIN יכול לעבוד עם פורמטים של תמונת דיסק ISO ו-BIN כאחד. הגיליון ".cue" מציין באיזה קובץ תמונה משמש לדיסק, ומבטיח סנכרון נכון בין רמזים לתמונה.
    






6. **צריבה והעברה**: גיליונות ".cue" אלה הם חיוניים בעת צריבת דיסקים או העתקת רצועות מדיסקים באמצעות CDRWIN. הם עוזרים להבטיח שהמוצר הסופי מתאים לפריסה ולתוכן המיועדים.
    






7. **גיבוי ושחזור**: משתמשי CDRWIN יוצרים לעתים קרובות גיליונות ".cue" בעת ביצוע גיבויים של התקליטורים או ה-DVD שלהם. ניתן להשתמש בגיליונות אלה מאוחר יותר לשחזור תוכן התקליטור, כולל פריסת רצועות ותזמון.

## איך פותחים קובץ CUE?

CDRWIN Cue Sheets תוכננו במיוחד עבור תוכנת CDRWIN, כך שהם נועדו בדרך כלל לפתיחה ולשימוש בתוך CDRWIN.

תוכניות הפותחות או הפניות לקובצי CUE

- CDRWIN
- פרויקטים חכמים IsoBuster
- EZB Systems UltraISO

## קבצי CUE אחרים

להלן סוגי קבצים אחרים המשתמשים בסיומת הקובץ **.cue**.

**דיסק ומדיה**
- [CUE - Cue Sheet File](/he/disc-and-media/cue/)
- [CUE - CDRWIN Cue Sheet](/he/disc-and-media/cue-cdrwin/)

## הפניות
* [CDRWIN](https://en.wikipedia.org/wiki/CDRWIN)

